PathFileType	4	(X/Y/Z)	T1_P2_NoVision_NoMovement_2_0-733.trc
DataRate	CameraRate	NumFrames	NumMarkers	Units	OrigDataRate	OrigDataStartFrame	OrigNumFrames
60	60	4	27	m	60	0	733
Frame#	Time	RHip			RKnee			RAnkle			RBigToe			RSmallToe			RHeel			LHip			LKnee			LAnkle			LBigToe			LSmallToe			LHeel			Neck			Head			Nose			RShoulder			RElbow			RWrist			RThumb			RIndex			RPinky			LShoulder			LElbow			LWrist			LThumb			LIndex			LPinky		
		X1	Y1	Z1	X2	Y2	Z2	X3	Y3	Z3	X4	Y4	Z4	X5	Y5	Z5	X6	Y6	Z6	X7	Y7	Z7	X8	Y8	Z8	X9	Y9	Z9	X10	Y10	Z10	X11	Y11	Z11	X12	Y12	Z12	X13	Y13	Z13	X14	Y14	Z14	X15	Y15	Z15	X16	Y16	Z16	X17	Y17	Z17	X18	Y18	Z18	X19	Y19	Z19	X20	Y20	Z20	X21	Y21	Z21	X22	Y22	Z22	X23	Y23	Z23	X24	Y24	Z24	X25	Y25	Z25	X26	Y26	Z26	X27	Y27	Z27
1	0.016666666666666666	459.8558807927464	3605.9838927732694	522.1680318123769	856.6885379138657	3660.4546253011863	537.2130717846655	1256.7884186126396	3753.821991832743	621.3559034508415	1316.8901258635008	3615.0335900225186	564.134444593649	1309.1967383340327	3656.3220230937345	517.0657597024302	1287.7709854545355	3737.4888314303457	623.563034017584	465.06260175703517	3492.2476300260305	720.1330292853198	870.9853928553939	3550.523582803818	740.05037509189	1245.5790918644232	3604.7620025972815	723.853991184579	1310.4516638491054	3492.1729374895986	669.4757947125177	1270.847456503934	3441.680571240509	702.9794848140009	1267.861637280554	3603.0244351940996	704.3827250637788	-94.08170335963128	3544.696783164546	638.3186223627675	-355.0490612697989	3438.596292784539	599.1303668201699	-184.63123550274733	3394.1318546911184	568.3432317215872	-31.336902341617566	3671.0391693834454	525.4178987077241	212.0285999546697	3611.8159479790415	414.72125086742585	364.0393205608789	3439.829651850239	486.6831537552612	435.92585752777035	3384.919375970024	558.8546479306383	455.06670588332116	3405.5030511085415	584.2668977976908	467.4164577573045	3384.825084334706	561.4247673723137	-21.081755026372814	3498.7753133061105	785.6539644390662	224.4832656988954	3368.9897478685466	750.8483112322352	381.4354332399726	3377.9313795932185	594.3055045976295	426.1837177023535	3382.872005883517	491.51277562702575	458.68699973894945	3423.8739799135765	514.062223487463	489.8000202492539	3403.9273822514215	575.2183010343109
2	0.03333333333333333	464.5183785206435	3607.5788874107716	522.9881691236772	861.4281066776504	3661.8927008021683	538.1507341768656	1259.6730744669205	3748.046429250749	618.5007599818103	1315.1456130218016	3596.1420286981784	544.2762979582191	1322.0463685849804	3678.3409860218862	522.3885720858161	1281.6100214300634	3730.551196189221	626.8237002748936	469.8322090682937	3493.9102786219637	721.2961482128786	876.082895176624	3551.7221138560803	741.4192549818596	1245.069682403586	3601.7434733773584	727.5956771092592	1310.33115970544	3492.1080230746225	669.3128807183514	1270.7324190092056	3441.562670228169	703.0436833925824	1267.7442804556035	3603.083064929283	704.637301488531	-94.12234585893586	3544.441248731989	638.2377321212545	-356.5106390920445	3458.010846755257	604.5555312994576	-179.23048020288292	3389.753535010264	565.9139881741444	-36.21946432114208	3658.248947534674	513.9708148362437	212.1065252255667	3611.682927656276	414.66939657730063	363.95361864313725	3439.4909614886105	486.61165263478836	437.0528855975621	3373.0633720439205	547.1768647655915	454.9315951855057	3404.80996075772	583.4406738902471	471.45692587344513	3381.3250842311872	559.7012730265837	-21.09665280569738	3501.021233237302	781.6712091814144	222.24471825995153	3381.099714933602	763.1835309233571	381.47959977099146	3377.9894278292754	594.2773002465389	425.8609550430164	3379.4039648030493	494.77431372108373	455.8329650967236	3401.9288600967157	513.4584371293095	484.68433611980396	3399.939529286556	574.0616273169594
3	0.05	464.61012557040954	3607.6630956488507	523.1676619451996	862.3450296719622	3661.167750604515	543.9560694958647	1259.8656572661287	3748.0834479444957	618.733673932321	1315.1300977417543	3595.9168321103784	544.2114759575898	1314.7907140013647	3657.7869683715326	517.8291525951358	1290.0759795566935	3726.524922133905	625.4884804799088	469.7179791663702	3493.809864742404	721.3080591755668	875.9085770258833	3551.483799703514	741.2093526288168	1245.015080907114	3601.690027989736	727.6219189772069	1310.3869080481493	3492.2865677763934	669.4060526721725	1270.6637758632303	3441.5181438708896	703.0878548282604	1280.2916760149992	3620.2292310559214	720.118225165459	-94.05594456183722	3544.4656860784467	638.180580019186	-355.07536697002456	3438.4404656830347	599.0149864384526	-180.43274076885035	3417.0630549412517	575.2896141507857	-32.071887114304	3654.290037604696	511.9857620499868	212.13131681919842	3611.578086569679	414.68496418690785	363.93293216289857	3439.3428581454605	486.5235635156799	431.8623145331442	3370.5584159722343	545.6175871527142	449.6729194689907	3403.0570355968594	582.4298498506914	471.36489805994995	3381.139052744522	559.5805431330044	-21.062992628477566	3500.85622603643	781.5864831420452	224.48572000323696	3368.943657942028	750.7881571066829	381.5208025180508	3378.1352976389053	594.3016832802087	425.8739367210462	3380.7944684873096	494.87087472690075	463.4345770897627	3425.3568531063843	519.7609497435063	486.6431441779592	3390.0524213426434	563.175897864655
4	0.06666666666666667	464.57104924893326	3607.7418399948715	523.1908282501397	861.556081846714	3662.067427814144	538.3985210021121	1257.0071329048749	3753.8524480231335	621.5141622546079	1323.7564313138182	3611.4046733540604	562.6110664594387	1308.936246547302	3655.8541430513014	516.2300489880888	1281.522455124582	3730.556383133568	626.8954458195578	469.6597511326791	3493.8617628666507	721.3077763572995	875.7675603509701	3551.4562372162377	741.0174212158182	1243.2511108313997	3609.361731871343	726.489442997136	1300.6010131910666	3481.7989341181064	658.356627617905	1270.6443935861769	3441.5670680160124	703.058603942867	1273.0062810606946	3604.960374386458	706.4898135178069	-94.06281503879313	3544.3888487981476	638.1682315485594	-356.4388326252645	3457.8827962495275	604.549506558966	-184.49196174775443	3412.9996659064227	573.4982628570876	-36.1911047117385	3658.077816138127	513.8836924348145	212.19884654745925	3611.6394076126785	414.7059491847682	363.87350544203605	3439.245912450508	486.5176152785483	428.79416753438045	3355.699054732338	533.192539093388	449.51452389219486	3402.307542554143	581.8331497030263	471.12002846384485	3381.2149075490793	559.7029595319805	-16.226509953283895	3504.519776718406	783.2686538401788	220.43658151610626	3367.9615423706755	750.1682059425086	381.5179983740953	3378.135007565555	594.2870148454111	426.1634375836291	3381.423562686233	495.52865654441536	458.53974426943404	3422.4767081015925	519.3099015389054	481.16706465165055	3386.3883950567574	561.9427947552294
